<svg width="100" height="100" viewBox="0 0 100 100" fill="none" xmlns="http://www.w3.org/2000/svg">
<path fill-rule="evenodd" clip-rule="evenodd" d="M19.9884 24.0985C16.7719 24.3406 13.4933 24.9468 10.3608 25.7002C6.71471 26.5779 5.88824 28.3835 6.64929 31.9347C7.91626 37.8443 9.57792 43.4529 12.3027 48.8664C17.4817 59.1559 28.1015 67.6463 40.1987 65.8767C46.2599 64.9902 51.0769 62.0376 53.1017 56.1149C55.1482 50.129 54.5202 43.1749 51.367 37.6938C44.8904 26.4351 32.1979 23.1837 19.9884 24.0996V24.0985Z" fill="#149930"/>
<path fill-rule="evenodd" clip-rule="evenodd" d="M66.8758 29.1173C64.2525 29.4237 53.648 31.1704 54.7132 35.2515C55.0447 36.5196 57.4205 39.373 58.1903 41.414C63.0793 54.3715 51.9623 59.242 59.1127 63.0713C64.029 65.7044 70.8207 64.9717 75.7239 62.6438C84.8205 58.3251 89.7368 48.8719 93.1975 39.8963C95.3116 34.413 88.8122 32.8517 84.4934 31.2533C79.1279 29.2678 72.5597 28.4522 66.8769 29.1162L66.8758 29.1173Z" fill="#78AA17"/>
<path fill-rule="evenodd" clip-rule="evenodd" d="M51.162 66.3847C44.1675 68.3593 46.4888 77.1103 52.9534 75.9393C60.0743 74.6483 57.173 64.6882 51.162 66.3847Z" fill="#149930"/>
</svg>
