<?xml version="1.0" encoding="UTF-8"?>
<!DOCTYPE svg PUBLIC "-//W3C//DTD SVG 1.1//EN" "http://www.w3.org/Graphics/SVG/1.1/DTD/svg11.dtd">
<!-- Creator: CorelDRAW 2021 (64-Bit) -->
<svg xmlns="http://www.w3.org/2000/svg" xml:space="preserve" width="368.746mm" height="125.245mm" version="1.1" style="shape-rendering:geometricPrecision; text-rendering:geometricPrecision; image-rendering:optimizeQuality; fill-rule:evenodd; clip-rule:evenodd"
viewBox="0 0 8550.79 2904.27"
 xmlns:xlink="http://www.w3.org/1999/xlink"
 xmlns:xodm="http://www.corel.com/coreldraw/odm/2003">
 <defs>
  <style type="text/css">
   <![CDATA[
    .fil0 {fill:url(#id0)}
   ]]>
  </style>
  <linearGradient id="id0" gradientUnits="userSpaceOnUse" x1="4540.23" y1="4541.93" x2="11855.71" y2="-3125.28">
   <stop offset="0" style="stop-opacity:1; stop-color:#109100"/>
   <stop offset="1" style="stop-opacity:1; stop-color:#00A74F"/>
  </linearGradient>
 </defs>
 <g id="Layer_x0020_1">
  <metadata id="CorelCorpID_0Corel-Layer"/>
  <path class="fil0" d="M109.31 240.81l24.35 0c51.81,0 109.57,67.29 194.29,188.58l570.94 817.49 697.87 -969.3c21.9,-30.41 58.54,-36.78 91.19,-36.78 67.87,0 112.68,41.93 121.23,127.45 4.43,44.33 -71.1,188.1 -188.07,344.48l-594.77 795.27 0 619.12c-9.32,93.26 -47.66,139.89 -115.53,139.89l-24.35 0c-67.87,0 -106.21,-46.63 -115.54,-139.89l0 -619.12c-487.53,-657.46 -742.43,-1058.41 -764.7,-1096.74l-6.22 -36.79 0 -24.36c0,-74.07 51.81,-109.31 109.31,-109.31zm3933.22 -18.65c20.84,179.46 -107.66,341.93 -287.29,362.82 -55.69,6.48 -109.86,-1.48 -158.62,-21.08 312.41,-36.9 383.91,-296.89 386.04,-304.99 -129,218.39 -294.48,236.23 -418.78,206.95 2.64,-35.87 9.8,-70.74 21.06,-103.83 19.37,-58.7 51.44,-112.36 93.11,-157.31 67.64,-73.21 160.75,-123.4 267.51,-135.79 12.1,-1.4 23.94,-2.34 35.88,-2.54 32.55,44.21 54.29,97.39 61.09,155.78zm-570.9 -114.04c0,0 -68.35,146.08 58.27,282.71l-1.82 7.6c-8.38,-4.15 -16.36,-8.99 -24.23,-14.42 -100.82,-70.6 -125.43,-209.51 -54.85,-310.38 22.83,-32.75 53.08,-57.58 86.93,-73.63 6.98,4.04 13.84,8.36 20.6,13.18 51.71,36.23 88.21,85.87 108.14,141.05 -52.87,50.63 -94.03,113.07 -119.05,183.17 -51.99,-40.11 -92.75,-109.52 -73.98,-229.28zm3617.09 639.33c51.81,0 155.95,178.22 312.93,534.67 9.32,2.07 123.3,230.55 342.97,685.95 13.47,-5.18 210.86,-398.41 593.73,-1179.7 22.28,-16.06 48.7,-29.53 80.31,-40.93 65.79,0 109.83,37.3 132.11,110.87 0,16.06 -211.9,443.48 -636.21,1281.24 -236.77,497.89 -377.17,752.79 -421.73,764.71l-51.81 0c-55.44,0 -89.11,-36.79 -99.99,-110.36 180.82,-381.83 271.48,-579.75 271.48,-593.73 -341.94,-667.82 -563.68,-1111.31 -664.71,-1330.98 0,-72.01 47.15,-112.43 140.92,-121.75zm-447.83 -506.64c81.32,5.86 121.23,45.07 121.23,101.54l0 1790.99c0,74.08 -33.68,110.87 -101.55,110.87l-30.05 0c-60.1,0 -89.63,-36.78 -89.63,-110.87l0 -110.87c-129.53,161.13 -294.79,241.43 -494.78,241.43 -362.66,0 -614.46,-197.91 -755.9,-593.22 -13.47,-99.47 -19.69,-173.56 -19.69,-223.29 0,-383.39 191.18,-638.29 573.53,-765.23 98.96,-12.95 173.56,-19.69 223.29,-19.69 183.93,0 338.32,74.09 462.66,221.75l0 -482.82c0,-107.31 41.11,-165.63 110.87,-160.6zm-1138.25 1177.57l0 29.01c0,268.37 120.72,456.43 362.67,564.72 62.69,20.2 119.68,30.05 171.49,30.05l30.57 0c177.71,0 315.52,-80.31 412.41,-240.91 33.67,-59.06 50.25,-119.68 50.25,-182.37l0 -311.37c0,-190.14 -117.09,-327.95 -351.79,-413.96l-102.06 -9.32 -39.38 0c-258.01,0 -433.12,137.81 -525.34,412.92l-8.81 121.24zm-607.92 -1179.18l21.24 0c66.83,8.81 100.51,38.86 100.51,89.63l0 1835.08c0,60.62 -40.41,93.78 -121.75,99.99 -66.83,-15.02 -99.99,-48.7 -99.99,-99.99l0 -1835.08c0,-50.77 33.16,-80.82 99.99,-89.63zm-1173.69 442.97l121.76 0c295.31,0 523.79,161.65 685.95,484.42 33.16,116.57 50.25,226.93 50.25,332.62 0,61.65 -43.52,98.44 -130.56,110.36l-1209.75 0c0,150.24 104.14,283.91 312.41,402.56 77.2,27.46 143.51,40.92 200.5,40.92l51.29 0c158.02,0 298.94,-50.77 422.25,-151.8l51.81 -9.32c66.32,15.54 99.99,48.7 99.99,100.51 -37.3,154.91 -222.26,245.06 -553.84,271.48l-50.25 0c-372.51,0 -617.57,-184.44 -736.21,-553.84 -20.2,-48.7 -30.57,-116.05 -30.57,-202.06l0 -69.94c0,-348.16 184.96,-593.22 554.36,-736.21 76.68,-12.95 130.56,-19.69 160.61,-19.69zm-493.22 736.21l1129.44 0c0,-215.53 -124.34,-380.28 -373.55,-494.78 -58.54,-20.21 -125.9,-30.05 -202.06,-30.05 -266.82,0 -445.04,134.18 -534.15,403.59 -12.95,53.36 -19.68,94.29 -19.68,121.24zm-597.04 -1190.06c69.94,0 109.83,43.52 120.19,130.56l0 102.07c-6.21,79.79 -39.37,119.68 -99.99,119.68l-41.45 0c-59.58,0 -92.74,-39.9 -99.99,-119.68l0 -102.07c11.4,-87.04 51.81,-130.56 121.24,-130.56zm0 473.54c74.08,0 110.87,30.57 110.87,91.19l0 1381.24c0,59.58 -36.78,89.62 -110.87,89.62 -80.82,0 -121.24,-53.36 -121.24,-160.6l0 -1240.32c0,-107.25 40.41,-161.13 121.24,-161.13zm-568.04 -473.54c69.94,0 109.83,43.52 120.19,130.56l0 102.07c-6.21,79.79 -39.37,119.68 -99.99,119.68l-41.45 0c-59.58,0 -92.74,-39.9 -99.99,-119.68l0 -102.07c11.4,-87.04 51.81,-130.56 121.24,-130.56zm0 473.54c74.08,0 110.87,30.57 110.87,91.19l0 1381.24c0,59.58 -36.79,89.62 -110.87,89.62 -80.83,0 -121.24,-53.36 -121.24,-160.6l0 -1240.32c0,-107.25 40.41,-161.13 121.24,-161.13z"/>
 </g>
</svg>
