<svg width="358" height="138" viewBox="0 0 358 138" fill="none" xmlns="http://www.w3.org/2000/svg">
<rect width="358" height="138" fill="black"/>
<path d="M81.0417 103.5C76.9584 107.458 72.5 106.833 68.2084 104.958C63.6667 103.042 59.5 102.958 54.7084 104.958C48.7084 107.542 45.5417 106.792 41.9584 103.5C21.625 82.5417 24.625 50.625 47.7084 49.4583C53.3334 49.75 57.25 52.5417 60.5417 52.7917C65.4584 51.7917 70.1667 48.9167 75.4167 49.2917C81.7084 49.7917 86.4584 52.2917 89.5834 56.7917C76.5834 64.5833 79.6667 81.7083 91.5834 86.5C89.2084 92.75 86.125 98.9583 81 103.542L81.0417 103.5ZM60.125 49.2083C59.5 39.9167 67.0417 32.25 75.7084 31.5C76.9167 42.25 65.9584 50.25 60.125 49.2083Z" fill="white"/>
<path d="M159.75 51.5H155.261V36.9545H159.949C161.36 36.9545 162.567 37.2457 163.571 37.8281C164.575 38.4058 165.344 39.2367 165.879 40.321C166.414 41.4006 166.682 42.6932 166.682 44.1989C166.682 45.714 166.412 47.0185 165.872 48.1122C165.332 49.2012 164.546 50.0393 163.514 50.6264C162.482 51.2088 161.227 51.5 159.75 51.5ZM157.023 49.9375H159.636C160.839 49.9375 161.836 49.7055 162.626 49.2415C163.417 48.7775 164.007 48.117 164.395 47.2599C164.783 46.4029 164.977 45.3826 164.977 44.1989C164.977 43.0246 164.786 42.0137 164.402 41.1662C164.018 40.3139 163.446 39.6605 162.683 39.206C161.921 38.7467 160.972 38.517 159.835 38.517H157.023V49.9375ZM173.841 51.7273C172.856 51.7273 171.992 51.4929 171.249 51.0241C170.51 50.5554 169.932 49.8996 169.516 49.0568C169.104 48.214 168.898 47.2292 168.898 46.1023C168.898 44.9659 169.104 43.974 169.516 43.1264C169.932 42.2789 170.51 41.6207 171.249 41.152C171.992 40.6832 172.856 40.4489 173.841 40.4489C174.826 40.4489 175.688 40.6832 176.426 41.152C177.17 41.6207 177.747 42.2789 178.159 43.1264C178.576 43.974 178.784 44.9659 178.784 46.1023C178.784 47.2292 178.576 48.214 178.159 49.0568C177.747 49.8996 177.17 50.5554 176.426 51.0241C175.688 51.4929 174.826 51.7273 173.841 51.7273ZM173.841 50.2216C174.589 50.2216 175.205 50.0298 175.688 49.6463C176.17 49.2628 176.528 48.7585 176.76 48.1335C176.992 47.5085 177.108 46.8314 177.108 46.1023C177.108 45.3731 176.992 44.6937 176.76 44.0639C176.528 43.4342 176.17 42.9252 175.688 42.5369C175.205 42.1487 174.589 41.9545 173.841 41.9545C173.093 41.9545 172.477 42.1487 171.994 42.5369C171.511 42.9252 171.154 43.4342 170.922 44.0639C170.69 44.6937 170.574 45.3731 170.574 46.1023C170.574 46.8314 170.69 47.5085 170.922 48.1335C171.154 48.7585 171.511 49.2628 171.994 49.6463C172.477 50.0298 173.093 50.2216 173.841 50.2216ZM183.443 51.5L180.119 40.5909H181.881L184.239 48.9432H184.352L186.682 40.5909H188.472L190.773 48.9148H190.886L193.244 40.5909H195.006L191.682 51.5H190.034L187.648 43.1193H187.477L185.091 51.5H183.443ZM198.898 44.9375V51.5H197.222V40.5909H198.841V42.2955H198.983C199.239 41.7415 199.627 41.2964 200.148 40.9602C200.669 40.6193 201.341 40.4489 202.165 40.4489C202.903 40.4489 203.55 40.6004 204.104 40.9034C204.658 41.2017 205.089 41.6562 205.396 42.267C205.704 42.8731 205.858 43.6402 205.858 44.5682V51.5H204.182V44.6818C204.182 43.8248 203.959 43.1572 203.514 42.679C203.069 42.196 202.458 41.9545 201.682 41.9545C201.147 41.9545 200.669 42.0705 200.247 42.3026C199.83 42.5346 199.501 42.8731 199.26 43.3182C199.018 43.7633 198.898 44.303 198.898 44.9375ZM210.597 36.9545V51.5H208.921V36.9545H210.597ZM218.099 51.7273C217.114 51.7273 216.25 51.4929 215.506 51.0241C214.768 50.5554 214.19 49.8996 213.773 49.0568C213.362 48.214 213.156 47.2292 213.156 46.1023C213.156 44.9659 213.362 43.974 213.773 43.1264C214.19 42.2789 214.768 41.6207 215.506 41.152C216.25 40.6832 217.114 40.4489 218.099 40.4489C219.084 40.4489 219.945 40.6832 220.684 41.152C221.427 41.6207 222.005 42.2789 222.417 43.1264C222.834 43.974 223.042 44.9659 223.042 46.1023C223.042 47.2292 222.834 48.214 222.417 49.0568C222.005 49.8996 221.427 50.5554 220.684 51.0241C219.945 51.4929 219.084 51.7273 218.099 51.7273ZM218.099 50.2216C218.847 50.2216 219.462 50.0298 219.945 49.6463C220.428 49.2628 220.786 48.7585 221.018 48.1335C221.25 47.5085 221.366 46.8314 221.366 46.1023C221.366 45.3731 221.25 44.6937 221.018 44.0639C220.786 43.4342 220.428 42.9252 219.945 42.5369C219.462 42.1487 218.847 41.9545 218.099 41.9545C217.351 41.9545 216.735 42.1487 216.252 42.5369C215.769 42.9252 215.412 43.4342 215.18 44.0639C214.948 44.6937 214.832 45.3731 214.832 46.1023C214.832 46.8314 214.948 47.5085 215.18 48.1335C215.412 48.7585 215.769 49.2628 216.252 49.6463C216.735 50.0298 217.351 50.2216 218.099 50.2216ZM228.811 51.7557C228.119 51.7557 227.492 51.6255 226.929 51.3651C226.365 51.0999 225.918 50.7188 225.586 50.2216C225.255 49.7197 225.089 49.1136 225.089 48.4034C225.089 47.7784 225.212 47.2718 225.458 46.8835C225.705 46.4905 226.034 46.1828 226.446 45.9602C226.858 45.7377 227.312 45.572 227.809 45.4631C228.311 45.3494 228.815 45.2595 229.322 45.1932C229.985 45.108 230.522 45.044 230.934 45.0014C231.351 44.9541 231.654 44.8759 231.843 44.767C232.038 44.6581 232.135 44.4687 232.135 44.1989V44.142C232.135 43.4413 231.943 42.8968 231.559 42.5085C231.181 42.1203 230.605 41.9261 229.833 41.9261C229.033 41.9261 228.406 42.1013 227.951 42.4517C227.497 42.8021 227.177 43.1761 226.993 43.5739L225.402 43.0057C225.686 42.3428 226.065 41.8267 226.538 41.4574C227.016 41.0833 227.537 40.8229 228.1 40.6761C228.669 40.5246 229.227 40.4489 229.777 40.4489C230.127 40.4489 230.529 40.4915 230.984 40.5767C231.443 40.6572 231.886 40.8253 232.312 41.081C232.743 41.3366 233.1 41.7225 233.385 42.2386C233.669 42.7547 233.811 43.446 233.811 44.3125V51.5H232.135V50.0227H232.049C231.936 50.2595 231.746 50.5128 231.481 50.7827C231.216 51.0526 230.863 51.2822 230.423 51.4716C229.983 51.661 229.445 51.7557 228.811 51.7557ZM229.066 50.25C229.729 50.25 230.288 50.1198 230.743 49.8594C231.202 49.599 231.547 49.2628 231.779 48.8509C232.016 48.4389 232.135 48.0057 232.135 47.5511V46.017C232.064 46.1023 231.907 46.1804 231.666 46.2514C231.429 46.3177 231.154 46.3769 230.842 46.429C230.534 46.4763 230.234 46.5189 229.94 46.5568C229.651 46.59 229.417 46.6184 229.237 46.642C228.801 46.6989 228.394 46.7912 228.015 46.919C227.641 47.0421 227.338 47.2292 227.106 47.4801C226.879 47.7263 226.765 48.0625 226.765 48.4886C226.765 49.071 226.981 49.5114 227.412 49.8097C227.847 50.1032 228.399 50.25 229.066 50.25ZM240.989 51.7273C240.08 51.7273 239.278 51.4976 238.582 51.0384C237.886 50.5743 237.341 49.9209 236.948 49.0781C236.555 48.2306 236.359 47.2292 236.359 46.0739C236.359 44.928 236.555 43.9337 236.948 43.0909C237.341 42.2481 237.888 41.5971 238.589 41.1378C239.29 40.6785 240.099 40.4489 241.018 40.4489C241.728 40.4489 242.289 40.5672 242.701 40.804C243.118 41.036 243.435 41.3011 243.653 41.5994C243.875 41.893 244.048 42.1345 244.171 42.3239H244.313V36.9545H245.989V51.5H244.37V49.8239H244.171C244.048 50.0227 243.873 50.2737 243.646 50.5767C243.418 50.875 243.094 51.1425 242.673 51.3793C242.251 51.6113 241.69 51.7273 240.989 51.7273ZM241.217 50.2216C241.889 50.2216 242.457 50.0464 242.921 49.696C243.385 49.3409 243.738 48.8509 243.979 48.2259C244.221 47.5961 244.342 46.8693 244.342 46.0455C244.342 45.2311 244.223 44.5185 243.987 43.9077C243.75 43.2921 243.399 42.8139 242.935 42.473C242.471 42.1274 241.898 41.9545 241.217 41.9545C240.506 41.9545 239.915 42.1368 239.441 42.5014C238.972 42.8613 238.62 43.3513 238.383 43.9716C238.151 44.5871 238.035 45.2784 238.035 46.0455C238.035 46.822 238.153 47.5275 238.39 48.1619C238.631 48.7917 238.987 49.2936 239.455 49.6676C239.929 50.0369 240.516 50.2216 241.217 50.2216ZM259.349 51.7273C258.364 51.7273 257.5 51.4929 256.756 51.0241C256.018 50.5554 255.44 49.8996 255.023 49.0568C254.612 48.214 254.406 47.2292 254.406 46.1023C254.406 44.9659 254.612 43.974 255.023 43.1264C255.44 42.2789 256.018 41.6207 256.756 41.152C257.5 40.6832 258.364 40.4489 259.349 40.4489C260.334 40.4489 261.195 40.6832 261.934 41.152C262.677 41.6207 263.255 42.2789 263.667 43.1264C264.084 43.974 264.292 44.9659 264.292 46.1023C264.292 47.2292 264.084 48.214 263.667 49.0568C263.255 49.8996 262.677 50.5554 261.934 51.0241C261.195 51.4929 260.334 51.7273 259.349 51.7273ZM259.349 50.2216C260.097 50.2216 260.712 50.0298 261.195 49.6463C261.678 49.2628 262.036 48.7585 262.268 48.1335C262.5 47.5085 262.616 46.8314 262.616 46.1023C262.616 45.3731 262.5 44.6937 262.268 44.0639C262.036 43.4342 261.678 42.9252 261.195 42.5369C260.712 42.1487 260.097 41.9545 259.349 41.9545C258.601 41.9545 257.985 42.1487 257.502 42.5369C257.019 42.9252 256.662 43.4342 256.43 44.0639C256.198 44.6937 256.082 45.3731 256.082 46.1023C256.082 46.8314 256.198 47.5085 256.43 48.1335C256.662 48.7585 257.019 49.2628 257.502 49.6463C257.985 50.0298 258.601 50.2216 259.349 50.2216ZM268.527 44.9375V51.5H266.85V40.5909H268.47V42.2955H268.612C268.868 41.7415 269.256 41.2964 269.777 40.9602C270.297 40.6193 270.97 40.4489 271.794 40.4489C272.532 40.4489 273.179 40.6004 273.733 40.9034C274.287 41.2017 274.717 41.6562 275.025 42.267C275.333 42.8731 275.487 43.6402 275.487 44.5682V51.5H273.811V44.6818C273.811 43.8248 273.588 43.1572 273.143 42.679C272.698 42.196 272.087 41.9545 271.311 41.9545C270.776 41.9545 270.297 42.0705 269.876 42.3026C269.459 42.5346 269.13 42.8731 268.889 43.3182C268.647 43.7633 268.527 44.303 268.527 44.9375ZM288.919 40.5909V42.0114H283.266V40.5909H288.919ZM284.913 37.9773H286.589V48.375C286.589 48.8485 286.658 49.2036 286.795 49.4403C286.938 49.6723 287.117 49.8286 287.335 49.9091C287.558 49.9848 287.792 50.0227 288.038 50.0227C288.223 50.0227 288.375 50.0133 288.493 49.9943C288.611 49.9706 288.706 49.9517 288.777 49.9375L289.118 51.4432C289.004 51.4858 288.846 51.5284 288.642 51.571C288.438 51.6184 288.18 51.642 287.868 51.642C287.394 51.642 286.93 51.5402 286.476 51.3366C286.026 51.133 285.652 50.8229 285.354 50.4062C285.06 49.9896 284.913 49.464 284.913 48.8295V37.9773ZM293.351 44.9375V51.5H291.675V36.9545H293.351V42.2955H293.493C293.749 41.732 294.132 41.2846 294.643 40.9531C295.16 40.617 295.846 40.4489 296.703 40.4489C297.446 40.4489 298.098 40.598 298.656 40.8963C299.215 41.1899 299.648 41.642 299.956 42.2528C300.268 42.8589 300.425 43.6307 300.425 44.5682V51.5H298.749V44.6818C298.749 43.8153 298.524 43.1454 298.074 42.6719C297.629 42.1937 297.011 41.9545 296.22 41.9545C295.671 41.9545 295.179 42.0705 294.743 42.3026C294.312 42.5346 293.971 42.8731 293.72 43.3182C293.474 43.7633 293.351 44.303 293.351 44.9375ZM308.065 51.7273C307.014 51.7273 306.107 51.4953 305.345 51.0312C304.587 50.5625 304.002 49.9091 303.591 49.071C303.183 48.2282 302.98 47.2481 302.98 46.1307C302.98 45.0133 303.183 44.0284 303.591 43.1761C304.002 42.3191 304.575 41.6515 305.309 41.1733C306.048 40.6903 306.91 40.4489 307.895 40.4489C308.463 40.4489 309.024 40.5436 309.578 40.733C310.132 40.9223 310.636 41.2301 311.091 41.6562C311.545 42.0777 311.907 42.6364 312.177 43.3324C312.447 44.0284 312.582 44.8854 312.582 45.9034V46.6136H304.173V45.1648H310.877C310.877 44.5492 310.754 44 310.508 43.517C310.267 43.0341 309.921 42.6529 309.471 42.3736C309.026 42.0942 308.501 41.9545 307.895 41.9545C307.227 41.9545 306.649 42.1203 306.162 42.4517C305.679 42.7784 305.307 43.2045 305.047 43.7301C304.786 44.2557 304.656 44.8191 304.656 45.4205V46.3864C304.656 47.2102 304.798 47.9086 305.082 48.4815C305.371 49.0497 305.771 49.483 306.282 49.7812C306.794 50.0748 307.388 50.2216 308.065 50.2216C308.505 50.2216 308.903 50.16 309.258 50.0369C309.618 49.9091 309.928 49.7197 310.189 49.4688C310.449 49.2131 310.65 48.8958 310.792 48.517L312.412 48.9716C312.241 49.5208 311.955 50.0038 311.552 50.4205C311.15 50.8324 310.653 51.1544 310.061 51.3864C309.469 51.6136 308.804 51.7273 308.065 51.7273Z" fill="white"/>
<path d="M149.273 97.5H146.318L154.864 74.2273H157.773L166.318 97.5H163.364L156.409 77.9091H156.227L149.273 97.5ZM150.364 88.4091H162.273V90.9091H150.364V88.4091ZM169.58 104.045V80.0455H172.17V82.8182H172.489C172.686 82.5152 172.958 82.1288 173.307 81.6591C173.663 81.1818 174.17 80.7576 174.83 80.3864C175.496 80.0076 176.398 79.8182 177.534 79.8182C179.004 79.8182 180.299 80.1856 181.42 80.9205C182.542 81.6553 183.417 82.697 184.045 84.0455C184.674 85.3939 184.989 86.9848 184.989 88.8182C184.989 90.6667 184.674 92.2689 184.045 93.625C183.417 94.9735 182.545 96.0189 181.432 96.7614C180.318 97.4962 179.034 97.8636 177.58 97.8636C176.458 97.8636 175.561 97.678 174.886 97.3068C174.212 96.928 173.693 96.5 173.33 96.0227C172.966 95.5379 172.686 95.1364 172.489 94.8182H172.261V104.045H169.58ZM172.216 88.7727C172.216 90.0909 172.409 91.2538 172.795 92.2614C173.182 93.2614 173.746 94.0455 174.489 94.6136C175.231 95.1742 176.14 95.4545 177.216 95.4545C178.337 95.4545 179.273 95.1591 180.023 94.5682C180.78 93.9697 181.348 93.1667 181.727 92.1591C182.114 91.1439 182.307 90.0152 182.307 88.7727C182.307 87.5455 182.117 86.4394 181.739 85.4545C181.367 84.4621 180.803 83.678 180.045 83.1023C179.295 82.5189 178.352 82.2273 177.216 82.2273C176.125 82.2273 175.208 82.5038 174.466 83.0568C173.723 83.6023 173.163 84.3674 172.784 85.3523C172.405 86.3295 172.216 87.4697 172.216 88.7727ZM189.08 104.045V80.0455H191.67V82.8182H191.989C192.186 82.5152 192.458 82.1288 192.807 81.6591C193.163 81.1818 193.67 80.7576 194.33 80.3864C194.996 80.0076 195.898 79.8182 197.034 79.8182C198.504 79.8182 199.799 80.1856 200.92 80.9205C202.042 81.6553 202.917 82.697 203.545 84.0455C204.174 85.3939 204.489 86.9848 204.489 88.8182C204.489 90.6667 204.174 92.2689 203.545 93.625C202.917 94.9735 202.045 96.0189 200.932 96.7614C199.818 97.4962 198.534 97.8636 197.08 97.8636C195.958 97.8636 195.061 97.678 194.386 97.3068C193.712 96.928 193.193 96.5 192.83 96.0227C192.466 95.5379 192.186 95.1364 191.989 94.8182H191.761V104.045H189.08ZM191.716 88.7727C191.716 90.0909 191.909 91.2538 192.295 92.2614C192.682 93.2614 193.246 94.0455 193.989 94.6136C194.731 95.1742 195.64 95.4545 196.716 95.4545C197.837 95.4545 198.773 95.1591 199.523 94.5682C200.28 93.9697 200.848 93.1667 201.227 92.1591C201.614 91.1439 201.807 90.0152 201.807 88.7727C201.807 87.5455 201.617 86.4394 201.239 85.4545C200.867 84.4621 200.303 83.678 199.545 83.1023C198.795 82.5189 197.852 82.2273 196.716 82.2273C195.625 82.2273 194.708 82.5038 193.966 83.0568C193.223 83.6023 192.663 84.3674 192.284 85.3523C191.905 86.3295 191.716 87.4697 191.716 88.7727ZM211.261 74.2273V97.5H208.58V74.2273H211.261ZM223.491 97.8636C221.81 97.8636 220.359 97.4924 219.139 96.75C217.927 96 216.991 94.9545 216.332 93.6136C215.681 92.2652 215.355 90.697 215.355 88.9091C215.355 87.1212 215.681 85.5455 216.332 84.1818C216.991 82.8106 217.908 81.7424 219.082 80.9773C220.264 80.2045 221.643 79.8182 223.219 79.8182C224.128 79.8182 225.026 79.9697 225.912 80.2727C226.798 80.5758 227.605 81.0682 228.332 81.75C229.06 82.4242 229.639 83.3182 230.071 84.4318C230.503 85.5455 230.719 86.9167 230.719 88.5455V89.6818H217.264V87.3636H227.991C227.991 86.3788 227.795 85.5 227.401 84.7273C227.014 83.9545 226.461 83.3447 225.741 82.8977C225.029 82.4508 224.188 82.2273 223.219 82.2273C222.151 82.2273 221.226 82.4924 220.446 83.0227C219.673 83.5455 219.079 84.2273 218.662 85.0682C218.245 85.9091 218.037 86.8106 218.037 87.7727V89.3182C218.037 90.6364 218.264 91.7538 218.719 92.6705C219.181 93.5795 219.821 94.2727 220.639 94.75C221.457 95.2197 222.408 95.4545 223.491 95.4545C224.196 95.4545 224.832 95.3561 225.401 95.1591C225.976 94.9545 226.473 94.6515 226.889 94.25C227.306 93.8409 227.628 93.3333 227.855 92.7273L230.446 93.4545C230.173 94.3333 229.715 95.1061 229.071 95.7727C228.427 96.4318 227.632 96.947 226.685 97.3182C225.738 97.6818 224.673 97.8636 223.491 97.8636ZM256.889 80.0455C256.753 78.8939 256.2 78 255.23 77.3636C254.26 76.7273 253.071 76.4091 251.662 76.4091C250.632 76.4091 249.73 76.5758 248.957 76.9091C248.192 77.2424 247.594 77.7008 247.162 78.2841C246.738 78.8674 246.526 79.5303 246.526 80.2727C246.526 80.8939 246.673 81.428 246.969 81.875C247.272 82.3144 247.658 82.6818 248.128 82.9773C248.598 83.2652 249.09 83.5038 249.605 83.6932C250.12 83.875 250.594 84.0227 251.026 84.1364L253.389 84.7727C253.995 84.9318 254.67 85.1515 255.412 85.4318C256.162 85.7121 256.878 86.0947 257.56 86.5795C258.249 87.0568 258.817 87.6705 259.264 88.4205C259.711 89.1705 259.935 90.0909 259.935 91.1818C259.935 92.4394 259.605 93.5758 258.946 94.5909C258.295 95.6061 257.34 96.4129 256.082 97.0114C254.832 97.6098 253.313 97.9091 251.526 97.9091C249.859 97.9091 248.416 97.6402 247.196 97.1023C245.984 96.5644 245.029 95.8144 244.332 94.8523C243.643 93.8902 243.253 92.7727 243.162 91.5H246.071C246.147 92.3788 246.442 93.1061 246.957 93.6818C247.48 94.25 248.139 94.6742 248.935 94.9545C249.738 95.2273 250.601 95.3636 251.526 95.3636C252.601 95.3636 253.567 95.1894 254.423 94.8409C255.279 94.4848 255.957 93.9924 256.457 93.3636C256.957 92.7273 257.207 91.9848 257.207 91.1364C257.207 90.3636 256.991 89.7348 256.56 89.25C256.128 88.7652 255.56 88.3712 254.855 88.0682C254.151 87.7652 253.389 87.5 252.571 87.2727L249.707 86.4545C247.889 85.9318 246.45 85.1856 245.389 84.2159C244.329 83.2462 243.798 81.9773 243.798 80.4091C243.798 79.1061 244.151 77.9697 244.855 77C245.567 76.0227 246.522 75.2652 247.719 74.7273C248.923 74.1818 250.268 73.9091 251.753 73.9091C253.253 73.9091 254.586 74.178 255.753 74.7159C256.92 75.2462 257.844 75.9735 258.526 76.8977C259.215 77.822 259.579 78.8712 259.616 80.0455H256.889ZM271.795 80.0455V82.3182H262.75V80.0455H271.795ZM265.386 75.8636H268.068V92.5C268.068 93.2576 268.178 93.8258 268.398 94.2045C268.625 94.5758 268.913 94.8258 269.261 94.9545C269.617 95.0758 269.992 95.1364 270.386 95.1364C270.682 95.1364 270.924 95.1212 271.114 95.0909C271.303 95.053 271.455 95.0227 271.568 95L272.114 97.4091C271.932 97.4773 271.678 97.5455 271.352 97.6136C271.027 97.6894 270.614 97.7273 270.114 97.7273C269.356 97.7273 268.614 97.5644 267.886 97.2386C267.167 96.9129 266.568 96.4167 266.091 95.75C265.621 95.0833 265.386 94.2424 265.386 93.2273V75.8636ZM282.733 97.8636C281.157 97.8636 279.775 97.4886 278.585 96.7386C277.403 95.9886 276.479 94.9394 275.812 93.5909C275.153 92.2424 274.824 90.6667 274.824 88.8636C274.824 87.0455 275.153 85.4583 275.812 84.1023C276.479 82.7462 277.403 81.6932 278.585 80.9432C279.775 80.1932 281.157 79.8182 282.733 79.8182C284.309 79.8182 285.688 80.1932 286.869 80.9432C288.059 81.6932 288.983 82.7462 289.642 84.1023C290.309 85.4583 290.642 87.0455 290.642 88.8636C290.642 90.6667 290.309 92.2424 289.642 93.5909C288.983 94.9394 288.059 95.9886 286.869 96.7386C285.688 97.4886 284.309 97.8636 282.733 97.8636ZM282.733 95.4545C283.93 95.4545 284.915 95.1477 285.688 94.5341C286.46 93.9205 287.032 93.1136 287.403 92.1136C287.775 91.1136 287.96 90.0303 287.96 88.8636C287.96 87.697 287.775 86.6098 287.403 85.6023C287.032 84.5947 286.46 83.7803 285.688 83.1591C284.915 82.5379 283.93 82.2273 282.733 82.2273C281.536 82.2273 280.551 82.5379 279.778 83.1591C279.006 83.7803 278.434 84.5947 278.062 85.6023C277.691 86.6098 277.506 87.697 277.506 88.8636C277.506 90.0303 277.691 91.1136 278.062 92.1136C278.434 93.1136 279.006 93.9205 279.778 94.5341C280.551 95.1477 281.536 95.4545 282.733 95.4545ZM294.736 97.5V80.0455H297.327V82.6818H297.509C297.827 81.8182 298.402 81.1174 299.236 80.5795C300.069 80.0417 301.009 79.7727 302.054 79.7727C302.251 79.7727 302.497 79.7765 302.793 79.7841C303.088 79.7917 303.312 79.803 303.463 79.8182V82.5455C303.372 82.5227 303.164 82.4886 302.838 82.4432C302.52 82.3902 302.183 82.3636 301.827 82.3636C300.978 82.3636 300.221 82.5417 299.554 82.8977C298.895 83.2462 298.372 83.7311 297.986 84.3523C297.607 84.9659 297.418 85.6667 297.418 86.4545V97.5H294.736ZM313.429 97.8636C311.747 97.8636 310.296 97.4924 309.077 96.75C307.865 96 306.929 94.9545 306.27 93.6136C305.618 92.2652 305.293 90.697 305.293 88.9091C305.293 87.1212 305.618 85.5455 306.27 84.1818C306.929 82.8106 307.846 81.7424 309.02 80.9773C310.202 80.2045 311.58 79.8182 313.156 79.8182C314.065 79.8182 314.963 79.9697 315.849 80.2727C316.736 80.5758 317.543 81.0682 318.27 81.75C318.997 82.4242 319.577 83.3182 320.009 84.4318C320.44 85.5455 320.656 86.9167 320.656 88.5455V89.6818H307.202V87.3636H317.929C317.929 86.3788 317.732 85.5 317.338 84.7273C316.952 83.9545 316.399 83.3447 315.679 82.8977C314.967 82.4508 314.126 82.2273 313.156 82.2273C312.088 82.2273 311.164 82.4924 310.384 83.0227C309.611 83.5455 309.016 84.2273 308.599 85.0682C308.183 85.9091 307.974 86.8106 307.974 87.7727V89.3182C307.974 90.6364 308.202 91.7538 308.656 92.6705C309.118 93.5795 309.759 94.2727 310.577 94.75C311.395 95.2197 312.346 95.4545 313.429 95.4545C314.134 95.4545 314.77 95.3561 315.338 95.1591C315.914 94.9545 316.41 94.6515 316.827 94.25C317.243 93.8409 317.565 93.3333 317.793 92.7273L320.384 93.4545C320.111 94.3333 319.652 95.1061 319.009 95.7727C318.365 96.4318 317.569 96.947 316.622 97.3182C315.675 97.6818 314.611 97.8636 313.429 97.8636Z" fill="white"/>
</svg>
