<svg width="325" height="58" viewBox="0 0 325 58" fill="none" xmlns="http://www.w3.org/2000/svg">
<g clip-path="url(#clip0_2_8)">
<path fill-rule="evenodd" clip-rule="evenodd" d="M13.5986 0.146218C10.3821 0.388271 7.10351 0.994494 3.97099 1.74791C0.324928 2.62563 -0.501541 4.43121 0.259509 7.98241C1.52647 13.892 3.18813 19.5007 5.91287 24.9141C11.0919 35.2036 21.7117 43.694 33.8089 41.9244C39.8701 41.0379 44.6872 38.0853 46.7119 32.1627C48.7585 26.1767 48.1304 19.2226 44.9772 13.7415C38.5006 2.48279 25.8081 -0.768569 13.5986 0.147308V0.146218Z" fill="#149930"/>
<path fill-rule="evenodd" clip-rule="evenodd" d="M60.486 5.165C57.8627 5.47138 47.2582 7.21809 48.3234 11.2992C48.6549 12.5672 51.0307 15.4206 51.8005 17.4617C56.6895 30.4192 45.5725 35.2897 52.7229 39.1189C57.6392 41.7521 64.4309 41.0194 69.3341 38.6915C78.4307 34.3727 83.347 24.9196 86.8077 15.944C88.9218 10.4607 82.4224 8.89938 78.1036 7.30095C72.7381 5.31546 66.1699 4.4999 60.4871 5.16391L60.486 5.165Z" fill="#78AA17"/>
<path fill-rule="evenodd" clip-rule="evenodd" d="M44.7722 42.4325C37.7777 44.4071 40.099 53.158 46.5636 51.987C53.6845 50.6961 50.7832 40.7359 44.7722 42.4325Z" fill="#149930"/>
<path fill-rule="evenodd" clip-rule="evenodd" d="M28.2897 25.6697L42.9252 38.0177C39.048 37.2523 34.3857 33.8603 28.2897 25.6697Z" fill="#201E1E"/>
<path fill-rule="evenodd" clip-rule="evenodd" d="M63.9195 20.7971L52.9584 25.6654C55.2655 25.8355 58.6292 24.6001 63.9195 20.7971Z" fill="#201E1E"/>
<path d="M103.658 9.3922L118.723 44.5684L119.637 46.4808C118.417 46.3696 117.531 46.314 116.976 46.314C115.632 46.314 114.661 46.3696 114.052 46.4808L113.567 44.901L111.155 38.5803L108.577 32.2739L102.174 32.0798L95.008 32.2739C92.4022 38.927 90.6554 43.6667 89.769 46.4798C89.3939 46.3685 88.7844 46.3129 87.9536 46.3129C87.5098 46.3129 86.8447 46.3685 85.9572 46.4798L102.589 9.39111H103.657L103.658 9.3922ZM107.746 30.0147L101.828 16.3769L96.021 30.0147H102.423H107.745H107.746Z" fill="#78AA17"/>
<path d="M128.12 44.0549C127.759 44.0549 127.123 43.875 126.194 43.4868C125.639 42.946 125.279 42.4619 125.126 42.0181C124.959 41.5613 124.877 40.9507 124.877 40.1613C124.877 38.3045 126.097 36.8903 128.536 35.9199C125.099 34.4927 123.379 32.1637 123.379 28.9353C123.379 27.6465 123.698 26.4133 124.322 25.2347C124.945 24.043 125.79 23.1413 126.858 22.5176C128.41 21.5886 130.822 21.1176 134.12 21.1176L141.507 21.4502C143.226 21.4502 144.501 21.3946 145.346 21.2833V23.1958L139.525 22.7106C141.951 24.4846 143.17 26.6325 143.17 29.1828C143.17 30.6242 142.671 32.0384 141.673 33.4242C141.146 34.2136 140.246 34.9354 138.929 35.5863C137.903 36.0987 136.864 36.4182 135.838 36.5567C134.813 36.6952 133.454 36.7649 131.777 36.7649C130.377 36.7649 129.421 36.9176 128.867 37.2501C128.258 37.6655 127.938 38.275 127.938 39.0797C127.938 40.0915 128.493 40.785 129.602 41.172C129.935 41.2549 130.267 41.3247 130.614 41.3519C130.961 41.3934 131.335 41.4206 131.737 41.4348C132.138 41.449 132.582 41.4621 133.094 41.4904H136.518C139.401 41.4904 141.48 41.8786 142.769 42.668C144.695 43.7627 145.666 45.5366 145.666 47.9757C145.666 49.6254 145.236 51.1082 144.363 52.4668C143.49 53.8111 142.312 54.8917 140.842 55.7236C138.348 56.9851 135.465 57.6229 132.194 57.6229C129.685 57.6229 127.454 57.0134 125.486 55.7792C123.532 54.546 122.548 52.7437 122.548 50.3875C122.548 47.0893 124.404 45.1212 128.119 44.4834V44.0538L128.12 44.0549ZM129.035 33.8407C129.95 34.9495 131.323 35.5034 133.179 35.5034C135.092 35.5034 136.575 34.8383 137.614 33.5081C138.543 32.3306 139.014 30.8608 139.014 29.101C139.014 24.6655 137.157 22.4478 133.442 22.4478C131.557 22.4478 130.074 23.0301 128.994 24.2076C127.913 25.3852 127.372 26.9378 127.372 28.8644C127.372 30.8881 127.927 32.5508 129.035 33.8407ZM128.12 45.5661C126.568 46.6193 125.791 48.172 125.791 50.2087C125.791 51.1377 126.027 52.0241 126.498 52.8974C126.969 53.7566 127.593 54.4501 128.369 54.9625C129.645 55.7388 131.335 56.127 133.441 56.127C135.645 56.127 137.585 55.6145 139.29 54.5885C140.994 53.5495 141.84 51.9827 141.84 49.8903C141.84 47.6028 141.175 46.1341 139.83 45.469C138.486 44.8181 136.545 44.4845 134.023 44.4845C131.363 44.4845 129.395 44.8454 128.119 45.5661H128.12Z" fill="#78AA17"/>
<path d="M151.654 39.4951L151.487 21.6857V21.2844L152.652 21.4513C154.037 21.4513 155.063 21.3957 155.728 21.2844L155.479 24.9436V26.2051L155.562 26.5235L155.977 25.8584C156.933 24.3199 158.001 23.1282 159.151 22.2548C160.315 21.3815 161.84 20.9519 163.725 20.9519C163.933 21.0631 164.126 21.1187 164.307 21.1187L164.043 22.4347V23.6962L163.96 24.7779V25.443L163.559 25.6098C163.545 25.5956 163.462 25.54 163.31 25.443C163.157 25.3317 163.046 25.2903 162.963 25.2903C162.492 24.9436 161.854 24.7779 161.05 24.7779C159.582 24.7779 158.444 25.2216 157.641 26.0939C156.976 26.8418 156.505 27.5626 156.214 28.2702C155.784 29.5459 155.562 31.5968 155.562 34.424V40.9245L155.728 46.0807V46.482C155.229 46.3707 154.481 46.3151 153.483 46.3151C153.04 46.3151 152.389 46.3707 151.487 46.482V45.0547L151.654 39.4973V39.4951Z" fill="#78AA17"/>
<path d="M170.114 21.2833C170.669 21.3946 171.514 21.4502 172.679 21.4502C173.635 21.4502 174.314 21.3946 174.744 21.2833C174.536 25.0526 174.424 29.2384 174.424 33.8265C174.424 37.9425 174.507 41.9898 174.674 45.9673L174.744 46.4798C173.746 46.3685 172.984 46.3129 172.443 46.3129C171.39 46.3129 170.614 46.3685 170.114 46.4798C170.323 42.6963 170.433 38.4822 170.433 33.8254C170.433 28.4065 170.35 24.3592 170.183 21.6846L170.114 21.2833ZM172.679 14.7828C171.931 14.7828 171.279 14.5331 170.752 14.0065C170.211 13.4798 169.949 12.8562 169.949 12.1355C169.949 11.3875 170.212 10.7497 170.738 10.2089C171.265 9.66806 171.916 9.39111 172.679 9.39111C173.414 9.39111 174.037 9.66806 174.564 10.2089C175.076 10.7638 175.34 11.4006 175.34 12.1355C175.34 12.8431 175.076 13.4668 174.55 13.9923C174.023 14.5189 173.399 14.7817 172.679 14.7817V14.7828Z" fill="#78AA17"/>
<path d="M202.866 26.6194H202.436C201.84 25.7602 201.383 25.178 201.036 24.8727C200.441 24.2349 199.65 23.6952 198.653 23.2645C197.655 22.8349 196.712 22.6135 195.797 22.6135C192.844 22.6135 190.558 23.7082 188.922 25.8987C187.301 28.075 186.483 30.6798 186.483 33.6738C186.483 36.9448 187.315 39.6063 188.978 41.6572C189.837 42.7519 190.919 43.6111 192.222 44.2217C193.525 44.8454 194.883 45.1507 196.296 45.1507C198.777 45.1507 201.217 44.0418 203.615 41.8382L203.947 42.0051L203.698 44.4997C201.258 46.2595 198.528 47.147 195.548 47.147C189.574 47.147 185.486 44.8737 183.255 40.3281C182.354 38.4429 181.911 36.3092 181.911 33.9257C181.911 31.25 182.506 28.9364 183.685 26.9683C184.862 25.0144 186.512 23.5316 188.605 22.4914C190.698 21.4654 193.068 20.953 195.701 20.953C198.972 20.953 201.772 21.6737 204.1 23.1293L202.867 26.6216L202.866 26.6194Z" fill="#78AA17"/>
<path d="M216.004 21.9626C215.893 26.3981 215.837 29.7247 215.837 31.9282C215.837 32.2749 215.851 32.8158 215.879 33.5495C215.907 34.2844 215.92 34.8241 215.92 35.1709L216.433 46.4809C215.324 46.3696 214.465 46.314 213.855 46.314C213.259 46.314 212.331 46.3696 211.096 46.4809L211.596 35.0051C211.651 34.4502 211.693 33.6052 211.707 32.469C211.72 31.3329 211.734 30.4879 211.763 29.9329V25.456V21.5341L211.513 10.2241C213.024 10.391 213.828 10.4738 213.939 10.4738C215.159 10.4738 216.018 10.3626 216.517 10.1413L216.004 21.9637V21.9626Z" fill="#149930"/>
<path d="M246.522 38.8987L246.689 44.068V46.0774V46.4787C246.024 46.3675 245.248 46.3119 244.361 46.3119C243.418 46.3119 242.698 46.3675 242.199 46.4787C242.199 45.9379 242.228 45.1757 242.282 44.1781C242.324 43.1935 242.352 42.4314 242.352 41.9047C242.421 40.5745 242.519 38.6196 242.615 36.0835C242.615 35.6539 242.629 35.0444 242.656 34.2539C242.684 33.4503 242.698 32.8681 242.698 32.5072C242.698 29.8054 242.448 28.0303 241.95 27.1853C240.772 24.8018 238.97 23.609 236.545 23.609C233.773 23.609 231.805 24.6895 230.641 26.8386C229.864 28.3356 229.476 30.8161 229.476 34.2539V42.9853L229.643 46.1592V46.4776C228.742 46.3664 228.022 46.3108 227.467 46.3108C226.482 46.3108 225.776 46.3664 225.319 46.4776C225.346 45.7841 225.387 44.8148 225.443 43.5675C225.484 42.3474 225.526 41.2113 225.567 40.158C225.679 35.945 225.734 32.7852 225.734 30.6787C225.734 29.4586 225.679 27.7403 225.567 25.5225C225.512 24.5794 225.484 23.1663 225.484 21.2812C226.094 21.3924 226.787 21.448 227.55 21.448C228.493 21.448 229.199 21.3924 229.642 21.2812V22.4315L229.475 24.0953V25.5225V26.0077C231.554 22.6397 234.437 20.9497 238.124 20.9497C241.103 20.9497 243.348 21.8361 244.86 23.6101C245.692 24.7048 246.204 25.7864 246.398 26.8397C246.592 27.8929 246.689 29.3343 246.689 31.1639L246.522 38.8976V38.8987Z" fill="#149930"/>
<path d="M259.648 14.145C259.648 14.7545 259.619 15.1982 259.565 15.4621L259.245 21.8787L264.887 21.7816V23.9437L259.245 23.7769C259.134 24.0539 259.079 24.4289 259.079 24.9414L258.996 36.5839V38.7461C258.996 40.6727 259.273 42.2526 259.813 43.4443C260.354 44.636 261.462 45.2455 263.139 45.2455C263.472 45.2455 263.888 45.1899 264.359 45.0787C264.83 44.9675 265.232 44.8846 265.551 44.8159V46.1603C264.138 46.6455 262.641 46.8952 261.074 46.8952C260.838 46.8952 260.603 46.881 260.353 46.8396C260.118 46.8123 259.854 46.7709 259.591 46.7284C259.314 46.6728 259.036 46.6171 258.732 46.5757C257.942 46.4231 257.221 46.0077 256.57 45.3142C255.918 44.6349 255.447 43.8586 255.17 42.9994C254.948 41.932 254.851 40.5189 254.851 38.745L255.17 29.4172V24.9403V23.7758L251.677 23.9427V23.1947V21.6977L255.17 21.8776C255.17 21.1852 255.143 20.1865 255.087 18.8846C255.031 17.5675 255.004 16.5971 255.004 15.9745L259.647 14.145H259.648Z" fill="#149930"/>
<path d="M286.605 24.7757L286.522 21.6846V21.2833C286.966 21.3946 287.7 21.4502 288.699 21.4502C289.682 21.4502 290.417 21.3946 290.916 21.2833C290.708 24.0408 290.597 26.12 290.597 27.52C290.541 29.6821 290.514 32.8703 290.514 37.0833C290.514 37.707 290.528 38.6632 290.555 39.9803C290.584 41.2963 290.597 42.2667 290.597 42.9046C290.597 44.5128 290.625 45.7045 290.68 46.4809C289.571 46.3696 288.878 46.3282 288.615 46.3282C287.673 46.3282 286.966 46.3696 286.522 46.4809V45.4003L286.605 42.2406V41.7554C284.72 45.0678 281.865 46.7316 278.026 46.7316C275.158 46.7316 272.926 45.8441 271.304 44.0701C270.515 43.1837 270.002 42.1435 269.793 40.9801C269.585 39.8026 269.475 38.3056 269.475 36.5032L269.642 28.8666L269.475 23.6134V21.6868V21.2855C270.14 21.3967 270.916 21.4523 271.804 21.4523C272.802 21.4523 273.549 21.3967 274.049 21.2855C273.896 22.6015 273.813 23.9045 273.813 25.1802C273.578 29.3801 273.467 32.734 273.467 35.2559C273.467 37.8891 273.772 39.7742 274.381 40.9245C275.449 43.0725 277.306 44.1541 279.967 44.1541C281.7 44.1541 283.085 43.6275 284.111 42.5742C285.276 41.5624 286.024 40.1624 286.356 38.347C286.523 37.2381 286.606 35.6026 286.606 33.4263V24.7778L286.605 24.7757Z" fill="#149930"/>
<path d="M300.34 21.2833C300.895 21.3946 301.74 21.4502 302.904 21.4502C303.861 21.4502 304.54 21.3946 304.97 21.2833C304.761 25.0526 304.65 29.2384 304.65 33.8265C304.65 37.9425 304.733 41.9898 304.9 45.9673L304.97 46.4798C303.972 46.3685 303.21 46.3129 302.669 46.3129C301.616 46.3129 300.839 46.3685 300.34 46.4798C300.548 42.6963 300.658 38.4822 300.658 33.8254C300.658 28.4065 300.575 24.3592 300.409 21.6846L300.34 21.2833ZM302.904 14.7828C302.156 14.7828 301.504 14.5331 300.978 14.0065C300.437 13.4798 300.174 12.8562 300.174 12.1355C300.174 11.3875 300.438 10.7497 300.964 10.2089C301.49 9.66806 302.141 9.39111 302.904 9.39111C303.639 9.39111 304.263 9.66806 304.79 10.2089C305.302 10.7638 305.566 11.4006 305.566 12.1355C305.566 12.8431 305.302 13.4668 304.775 13.9923C304.249 14.5189 303.625 14.7817 302.904 14.7817V14.7828Z" fill="#149930"/>
<path d="M318.856 14.145C318.856 14.7545 318.828 15.1982 318.773 15.4621L318.454 21.8787L324.095 21.7816V23.9437L318.454 23.7769C318.342 24.0539 318.287 24.4289 318.287 24.9414L318.204 36.5839V38.7461C318.204 40.6727 318.481 42.2526 319.022 43.4443C319.562 44.636 320.67 45.2455 322.347 45.2455C322.68 45.2455 323.096 45.1899 323.567 45.0787C324.038 44.9675 324.441 44.8846 324.759 44.8159V46.1603C323.346 46.6455 321.849 46.8952 320.282 46.8952C320.047 46.8952 319.811 46.881 319.561 46.8396C319.326 46.8123 319.062 46.7709 318.799 46.7284C318.522 46.6728 318.244 46.6171 317.94 46.5757C317.151 46.4231 316.429 46.0077 315.778 45.3142C315.126 44.6349 314.655 43.8586 314.378 42.9994C314.157 41.932 314.06 40.5189 314.06 38.745L314.378 29.4172V24.9403V23.7758L310.886 23.9427V23.1947V21.6977L314.378 21.8776C314.378 21.1852 314.351 20.1865 314.295 18.8846C314.239 17.5675 314.212 16.5971 314.212 15.9745L318.855 14.145H318.856Z" fill="#149930"/>
</g>
<defs>
<clipPath id="clip0_2_8">
<rect width="324.76" height="57.6231" fill="white"/>
</clipPath>
</defs>
</svg>
